<svg width="320" height="143" viewBox="0 0 320 143" fill="none" xmlns="http://www.w3.org/2000/svg">
<path d="M0 136.266C0 123.805 2.42199 113.736 7.26596 106.057C12.2567 98.3778 18.4218 92.2202 25.7611 87.5838C33.1005 82.9474 41.027 79.3977 49.5407 76.9347C58.2011 74.3267 66.201 71.8636 73.5404 69.5454C80.8797 67.2273 86.9714 64.5469 91.8154 61.5043C96.8061 58.4616 99.3015 54.1875 99.3015 48.6818V45.2045C99.3015 39.6989 97.0263 35.9318 92.4759 33.9034C87.9255 31.7301 81.0999 30.6435 71.9991 30.6435C62.0176 30.6435 54.7516 32.0199 50.2012 34.7727C45.7976 37.5256 43.0086 42.669 41.8343 50.2031H0.440362C1.02751 40.6406 3.08253 32.6719 6.60542 26.2969C10.2751 19.777 15.1925 14.6335 21.3575 10.8665C27.5226 6.95455 34.8619 4.20171 43.3756 2.60796C52.036 0.86932 61.6506 0 72.2193 0C83.3751 0 93.2098 0.86932 101.723 2.60796C110.237 4.20171 117.356 6.8821 123.081 10.6492C128.953 14.2713 133.356 19.0526 136.292 24.9929C139.374 30.7884 140.916 37.9602 140.916 46.5085C140.916 53.8977 139.595 60.2003 136.952 65.4162C134.31 70.4872 130.787 74.8338 126.384 78.456C122.127 82.0781 117.136 85.1207 111.411 87.5838C105.834 89.902 100.109 92.0028 94.2374 93.8864C88.3659 95.625 82.4944 97.2912 76.6229 98.8849C70.8982 100.479 65.6873 102.217 60.9901 104.101C56.2929 105.984 52.3296 108.303 49.1003 111.055C46.0178 113.663 44.1095 116.923 43.3756 120.835H140.035V153H0V136.266Z" fill="white" fill-opacity="0.05"/>
<path d="M235.891 3.04261H293.138V89.9744H320V119.966H293.138V153H252.184V119.966H157.066V93.8864L235.891 3.04261ZM252.184 89.9744V29.5568L199.781 89.9744H252.184Z" fill="white" fill-opacity="0.05"/>
</svg>
