<svg width="26" height="20" viewBox="0 0 26 20" fill="none" xmlns="http://www.w3.org/2000/svg">
<rect width="26" height="20" fill="#DD3333"/>
<path d="M9.316 12.812V14H4.792V12.812H6.436V6.74C6.372 6.836 6.264 6.944 6.112 7.064C5.968 7.176 5.804 7.288 5.62 7.4C5.436 7.504 5.244 7.592 5.044 7.664C4.852 7.736 4.676 7.772 4.516 7.772V6.548C4.732 6.548 4.948 6.492 5.164 6.38C5.388 6.268 5.596 6.14 5.788 5.996C5.98 5.844 6.132 5.708 6.244 5.588C6.364 5.468 6.428 5.404 6.436 5.396H7.792V12.812H9.316ZM16.2261 11.54C16.2261 12.052 16.0861 12.5 15.8061 12.884C15.5341 13.268 15.1621 13.568 14.6901 13.784C14.2261 13.992 13.7181 14.096 13.1661 14.096C12.5981 14.096 12.0861 13.984 11.6301 13.76C11.1741 13.528 10.8101 13.216 10.5381 12.824C10.2661 12.432 10.1301 11.984 10.1301 11.48C10.1301 11.144 10.2061 10.844 10.3581 10.58C10.5101 10.308 10.6981 10.076 10.9221 9.884C11.1461 9.692 11.3741 9.544 11.6061 9.44C11.3901 9.336 11.1901 9.204 11.0061 9.044C10.8301 8.876 10.6861 8.684 10.5741 8.468C10.4701 8.252 10.4181 8.02 10.4181 7.772C10.4181 7.404 10.4981 7.08 10.6581 6.8C10.8261 6.512 11.0461 6.272 11.3181 6.08C11.5901 5.88 11.8861 5.732 12.2061 5.636C12.5341 5.532 12.8581 5.48 13.1781 5.48C13.5061 5.48 13.8301 5.532 14.1501 5.636C14.4781 5.732 14.7781 5.876 15.0501 6.068C15.3301 6.26 15.5501 6.5 15.7101 6.788C15.8781 7.068 15.9621 7.392 15.9621 7.76C15.9621 8.008 15.9061 8.244 15.7941 8.468C15.6901 8.684 15.5421 8.876 15.3501 9.044C15.1661 9.212 14.9661 9.344 14.7501 9.44C15.0061 9.552 15.2461 9.708 15.4701 9.908C15.7021 10.108 15.8861 10.344 16.0221 10.616C16.1581 10.888 16.2261 11.196 16.2261 11.54ZM14.8941 11.456C14.8941 11.224 14.8421 11.016 14.7381 10.832C14.6421 10.648 14.5101 10.496 14.3421 10.376C14.1741 10.248 13.9901 10.152 13.7901 10.088C13.5901 10.024 13.3861 9.992 13.1781 9.992C12.8821 9.992 12.6061 10.052 12.3501 10.172C12.0941 10.292 11.8861 10.464 11.7261 10.688C11.5661 10.904 11.4861 11.16 11.4861 11.456C11.4861 11.68 11.5341 11.884 11.6301 12.068C11.7261 12.244 11.8541 12.396 12.0141 12.524C12.1821 12.652 12.3661 12.748 12.5661 12.812C12.7741 12.876 12.9821 12.908 13.1901 12.908C13.4781 12.908 13.7501 12.848 14.0061 12.728C14.2701 12.6 14.4821 12.428 14.6421 12.212C14.8101 11.988 14.8941 11.736 14.8941 11.456ZM11.7501 7.82C11.7501 8.068 11.8221 8.28 11.9661 8.456C12.1101 8.632 12.2941 8.764 12.5181 8.852C12.7421 8.94 12.9621 8.984 13.1781 8.984C13.4021 8.984 13.6221 8.94 13.8381 8.852C14.0621 8.756 14.2461 8.62 14.3901 8.444C14.5421 8.268 14.6181 8.052 14.6181 7.796C14.6181 7.564 14.5501 7.364 14.4141 7.196C14.2781 7.02 14.0981 6.888 13.8741 6.8C13.6581 6.704 13.4261 6.656 13.1781 6.656C12.9301 6.656 12.6941 6.704 12.4701 6.8C12.2541 6.896 12.0781 7.032 11.9421 7.208C11.8141 7.376 11.7501 7.58 11.7501 7.82ZM21.2252 9.212V10.268H19.8932V11.72H18.7052V10.268H17.3732V9.212H18.7052V7.76H19.8932V9.212H21.2252Z" fill="white"/>
</svg>
