<svg width="172" height="61" viewBox="0 0 172 61" fill="none" xmlns="http://www.w3.org/2000/svg">
<path d="M13.4352 27.8735C13.4352 26.8912 13.1206 26.2205 12.4913 25.8616C11.8817 25.4837 10.9771 25.2948 9.77757 25.2948C8.61734 25.2948 7.68326 25.4932 6.97532 25.8899C6.28705 26.2866 5.94292 26.9573 5.94292 27.9019V36.6866H0.692383V16H5.88392V24.5864C6.39521 23.6418 7.2113 22.9522 8.3322 22.5177C9.4531 22.0832 10.7215 21.8659 12.1374 21.8659C14.2612 21.8659 15.8835 22.291 17.0044 23.1411C18.1253 23.9913 18.6858 25.4082 18.6858 27.3918V36.6866H13.4352V27.8735Z" fill="white"/>
<path d="M21.9766 22.2627H27.2271V31.0757C27.2271 32.077 27.5319 32.7571 28.1415 33.116C28.7511 33.4561 29.6656 33.6261 30.8848 33.6261C31.4354 33.6261 31.9467 33.5883 32.4187 33.5128C32.8906 33.4183 33.2937 33.2766 33.628 33.0877C33.9623 32.8799 34.2278 32.606 34.4245 32.2659C34.6211 31.9258 34.7194 31.5102 34.7194 31.019V22.2627H39.97V36.6866H34.8374V34.2212C34.3262 35.2225 33.5101 35.9498 32.3892 36.4032C31.2683 36.8566 29.9802 37.0833 28.525 37.0833C27.5024 37.0833 26.5782 36.9889 25.7522 36.8C24.946 36.611 24.2577 36.2993 23.6874 35.8648C23.1368 35.4114 22.714 34.8352 22.419 34.1362C22.1241 33.4183 21.9766 32.5304 21.9766 31.4724V22.2627Z" fill="white"/>
<path d="M42.7888 29.5171C42.7888 28.1569 42.9658 26.9951 43.3198 26.0316C43.6934 25.0492 44.2244 24.2557 44.9126 23.6512C45.6009 23.0278 46.4367 22.5744 47.4199 22.291C48.4228 22.0076 49.5536 21.8659 50.8121 21.8659C53.6832 21.8659 55.7185 22.6783 56.9181 24.303V16H62.1686V36.6866H57.0361V34.4479C55.8365 36.2049 53.7618 37.0833 50.8121 37.0833C49.5732 37.0833 48.4523 36.9416 47.4494 36.6583C46.4662 36.3749 45.6206 35.9309 44.9126 35.3264C44.2244 34.7218 43.6934 33.9378 43.3198 32.9743C42.9658 32.0109 42.7888 30.8585 42.7888 29.5171ZM56.9181 28.3269C56.9181 27.1557 56.5543 26.3527 55.8267 25.9182C55.0991 25.4837 53.988 25.2665 52.4935 25.2665C51.0383 25.2665 49.937 25.4932 49.1898 25.9466C48.4622 26.3811 48.0984 27.184 48.0984 28.3553V30.5656C48.0984 31.7369 48.4622 32.5493 49.1898 33.0027C49.937 33.4561 51.0383 33.6828 52.4935 33.6828C53.9683 33.6828 55.0696 33.4561 55.7972 33.0027C56.5444 32.5493 56.9181 31.7275 56.9181 30.5373V28.3269Z" fill="white"/>
<path d="M65.6177 22.2627H70.8683V31.0757C70.8683 32.077 71.1731 32.7571 71.7827 33.116C72.3923 33.4561 73.3067 33.6261 74.5259 33.6261C75.0765 33.6261 75.5878 33.5883 76.0598 33.5128C76.5317 33.4183 76.9349 33.2766 77.2692 33.0877C77.6035 32.8799 77.869 32.606 78.0656 32.2659C78.2623 31.9258 78.3606 31.5102 78.3606 31.019V22.2627H83.6111V36.6866H78.4786V34.2212C77.9673 35.2225 77.1512 35.9498 76.0303 36.4032C74.9094 36.8566 73.6213 37.0833 72.1661 37.0833C71.1436 37.0833 70.2193 36.9889 69.3934 36.8C68.5871 36.611 67.8988 36.2993 67.3286 35.8648C66.7779 35.4114 66.3552 34.8352 66.0602 34.1362C65.7652 33.4183 65.6177 32.5304 65.6177 31.4724V22.2627Z" fill="white"/>
<path d="M86.43 29.5171C86.43 28.1569 86.6069 26.9951 86.9609 26.0316C87.3345 25.0492 87.8655 24.2557 88.5538 23.6512C89.242 23.0278 90.0778 22.5744 91.061 22.291C92.064 22.0076 93.1947 21.8659 94.4532 21.8659C97.3243 21.8659 99.3596 22.6783 100.559 24.303V16H105.81V36.6866H100.677V34.4479C99.4776 36.2049 97.403 37.0833 94.4532 37.0833C93.2144 37.0833 92.0935 36.9416 91.0905 36.6583C90.1073 36.3749 89.2617 35.9309 88.5538 35.3264C87.8655 34.7218 87.3345 33.9378 86.9609 32.9743C86.6069 32.0109 86.43 30.8585 86.43 29.5171ZM100.559 28.3269C100.559 27.1557 100.195 26.3527 99.4678 25.9182C98.7402 25.4837 97.6291 25.2665 96.1346 25.2665C94.6794 25.2665 93.5782 25.4932 92.8309 25.9466C92.1033 26.3811 91.7395 27.184 91.7395 28.3553V30.5656C91.7395 31.7369 92.1033 32.5493 92.8309 33.0027C93.5782 33.4561 94.6794 33.6828 96.1346 33.6828C97.6095 33.6828 98.7107 33.4561 99.4383 33.0027C100.186 32.5493 100.559 31.7275 100.559 30.5373V28.3269Z" fill="white"/>
<g filter="url(#filter0_d_464_4307)">
<rect width="48.8045" height="44" transform="translate(115.195 5)" fill="url(#paint0_linear_464_4307)"/>
<path d="M118.949 34.9785C118.949 33.4108 119.262 32.1439 119.887 31.1777C120.531 30.2116 121.327 29.4368 122.274 28.8535C123.221 28.2702 124.244 27.8236 125.342 27.5137C126.46 27.1855 127.492 26.8757 128.44 26.584C129.387 26.2923 130.173 25.9551 130.798 25.5723C131.442 25.1895 131.764 24.6517 131.764 23.959V23.5215C131.764 22.8288 131.47 22.3548 130.883 22.0996C130.296 21.8262 129.415 21.6895 128.241 21.6895C126.953 21.6895 126.015 21.8626 125.428 22.209C124.859 22.5553 124.499 23.2025 124.348 24.1504H119.006C119.082 22.9473 119.347 21.9447 119.802 21.1426C120.275 20.3223 120.91 19.6751 121.705 19.2012C122.501 18.709 123.448 18.3626 124.547 18.1621C125.664 17.9434 126.905 17.834 128.269 17.834C129.709 17.834 130.978 17.9434 132.077 18.1621C133.175 18.3626 134.094 18.6999 134.833 19.1738C135.591 19.6296 136.159 20.2311 136.538 20.9785C136.936 21.7077 137.134 22.61 137.134 23.6855C137.134 24.6152 136.964 25.4082 136.623 26.0645C136.282 26.7025 135.827 27.2493 135.259 27.7051C134.71 28.1608 134.066 28.5436 133.327 28.8535C132.607 29.1452 131.868 29.4095 131.111 29.6465C130.353 29.8652 129.595 30.0749 128.837 30.2754C128.099 30.4759 127.426 30.6947 126.82 30.9316C126.214 31.1686 125.702 31.4603 125.286 31.8066C124.888 32.1348 124.642 32.5449 124.547 33.0371H137.021V37.084H118.949V34.9785Z" fill="white"/>
<path d="M149.391 18.2168H156.779V29.1543H160.245V32.9277H156.779V37.084H151.494V32.9277H139.219V29.6465L149.391 18.2168ZM151.494 29.1543V21.5527L144.731 29.1543H151.494Z" fill="white"/>
</g>
<defs>
<filter id="filter0_d_464_4307" x="107.325" y="0.277777" width="64.5454" height="59.7407" filterUnits="userSpaceOnUse" color-interpolation-filters="sRGB">
<feFlood flood-opacity="0" result="BackgroundImageFix"/>
<feColorMatrix in="SourceAlpha" type="matrix" values="0 0 0 0 0 0 0 0 0 0 0 0 0 0 0 0 0 0 127 0" result="hardAlpha"/>
<feOffset dy="3.14815"/>
<feGaussianBlur stdDeviation="3.93519"/>
<feComposite in2="hardAlpha" operator="out"/>
<feColorMatrix type="matrix" values="0 0 0 0 0.0235294 0 0 0 0 0.0470588 0 0 0 0 0.0745098 0 0 0 0.22 0"/>
<feBlend mode="normal" in2="BackgroundImageFix" result="effect1_dropShadow_464_4307"/>
<feBlend mode="normal" in="SourceGraphic" in2="effect1_dropShadow_464_4307" result="shape"/>
</filter>
<linearGradient id="paint0_linear_464_4307" x1="24.4022" y1="0" x2="24.4022" y2="43.6576" gradientUnits="userSpaceOnUse">
<stop stop-color="#FF6363"/>
<stop offset="1" stop-color="#DD3333"/>
</linearGradient>
</defs>
</svg>
